<?xml version="1.0" encoding="UTF-8"?>
<svg id="Capa_1" data-name="Capa 1" xmlns="http://www.w3.org/2000/svg" viewBox="0 0 200 200">
  <defs>
    <style>
      .cls-1 {
        fill: #070708;
      }

      .cls-1, .cls-2, .cls-3, .cls-4, .cls-5, .cls-6, .cls-7, .cls-8, .cls-9, .cls-10 {
        stroke-width: 0px;
      }

      .cls-2 {
        fill: #070808;
      }

      .cls-3 {
        fill: #040505;
      }

      .cls-4 {
        fill: #040404;
      }

      .cls-5 {
        fill: #010101;
      }

      .cls-6 {
        fill: #060707;
      }

      .cls-7 {
        fill: #060708;
      }

      .cls-8 {
        fill: #060607;
      }

      .cls-9 {
        fill: #050606;
      }

      .cls-10 {
        fill: #050506;
      }
    </style>
  </defs>
  <g id="aLdBYq.tif">
    <g>
      <path class="cls-5" d="m61.61,88.66c-1.14-2.38-1.51-4.71-1.49-7.15.05-5.58.01-11.16.04-16.74.02-3.81,1.46-7.07,4.04-9.82,1.85-1.97,3.81-3.83,5.69-5.77,2-2.07,3.01-4.54,3.02-7.44,0-.82-.23-1.04-1.03-1.21-3.37-.71-4.97-2.75-4.98-6.2-.01-5.46-.02-10.93,0-16.39.01-3.8,2.36-6.12,6.15-6.12,16.09,0,32.19,0,48.28,0,3.86,0,6.14,2.26,6.15,6.08,0,5.58,0,11.16,0,16.74,0,3.08-1.54,5.08-4.55,5.79-.91.21-1.17.57-1.2,1.51-.07,3,.72,5.65,2.69,7.95,2.59,3.02,3.72,6.57,3.72,10.52,0,9.28,0,18.56,0,27.84,0,.47-.13.99.03,1.4.37.93.73,1.81,2.13,1.04,6.26-3.43,12.6-2.5,17.68,2.53,3.8,3.76,7.55,7.57,11.33,11.35,2.47,2.47,4.13,5.36,4.55,8.87.1.82.19,1.33,1.34,1.22,1.58-.15,2.74,1.1,2.76,2.54.01,1.48-1.3,2.86-2.86,2.66-1-.13-.98.17-1.02.93-.17,3.62.29,7.01,2.99,9.76.66.67,1,.74,1.81.12,2.36-1.79,5.19-1.56,7.34.56,4.14,4.08,8.26,8.19,12.32,12.35,2.34,2.39,2.3,5.62-.08,8.01-11.52,11.58-23.05,23.14-34.6,34.68-2.6,2.59-5.76,2.53-8.38-.08-3.96-3.93-7.9-7.89-11.83-11.84-2.32-2.34-2.65-4.96-.79-7.6.51-.73.33-.99-.15-1.52-2.19-2.43-4.92-3.72-8.16-3.97-3.2-.25-6.04-1.46-8.37-3.63-3.13-2.93-6.15-5.98-9.17-9.02-1.38-1.39-1.4-2.86-.2-4.01,1.14-1.09,2.67-.99,4.04.35,2.73,2.67,5.43,5.37,8.13,8.07,1.76,1.77,3.83,2.8,6.35,3.01,4.32.36,8.02,2.1,10.93,5.34.73.81,1.12.75,1.86,0,8.36-8.42,16.74-16.82,25.15-25.19.72-.71.9-1.09.07-1.91-3.13-3.13-4.58-6.96-4.6-11.4,0-2.99.26-5.98-.2-8.97-.32-2.05-1.24-3.76-2.69-5.21-3.98-4-7.94-8.01-11.96-11.96-2.7-2.65-5.88-3.4-9.52-2.16-1.14.39-1.07.73-.3,1.47,1.86,1.8,3.67,3.64,5.48,5.49,1.45,1.48,1.55,2.98.32,4.16-1.11,1.07-2.69.93-4.04-.4-2.49-2.47-4.95-4.96-7.72-7.73,0,2.38,0,4.4,0,6.42,0,3.76.01,7.52,0,11.28-.03,6.95-5.29,11.05-11.97,9.33-.21-.05-.41-.1-.93-.22,0,2.56.23,4.99-.05,7.35-.67,5.61-6.08,9.05-11.47,7.38-1.05-.33-1.31-.05-1.65.88-.86,2.35-2.45,4.14-4.8,5.08-1.07.43-1.9,1.08-2.69,1.87-3.22,3.26-6.47,6.49-9.7,9.74-2.7,2.71-5.89,4.36-9.75,4.65-3.54.27-6.32,1.96-8.49,4.72,2.41,3.32,2.24,5.79-.64,8.68-3.77,3.79-7.55,7.57-11.33,11.34-2.85,2.84-5.92,2.85-8.76.01-7.48-7.48-14.93-14.97-22.42-22.44-1.03-1.03-1.46-2.14-.77-3.46.61-1.18,1.69-1.59,2.98-1.31.84.18,1.37.86,1.95,1.44,7.14,7.15,14.29,14.28,21.4,21.46.92.93,1.43,1.11,2.44.05,3.49-3.65,7.09-7.2,10.7-10.73.76-.75.81-1.13.02-1.91-11.19-11.15-22.36-22.33-33.49-33.54-.8-.8-1.18-.71-1.91.04-3.61,3.7-7.26,7.36-10.96,10.97-.83.81-.69,1.22.06,1.91,1.17,1.06,2.28,2.21,3.36,3.36,1.19,1.27,1.19,2.85.08,3.91-1.1,1.05-2.52,1.04-3.76-.15-1.49-1.42-2.96-2.86-4.35-4.37-1.99-2.15-2.03-5.36.04-7.49,4.17-4.3,8.41-8.54,12.69-12.73,2.04-1.99,4.89-2.12,7.22-.35.75.57,1.08.54,1.68-.1,1.87-2.01,2.95-4.31,3.04-7.09.11-3.34-.21-6.69.22-10.03.43-3.39,1.92-6.23,4.29-8.63,3.92-3.97,7.88-7.9,11.82-11.85,2.54-2.55,5.62-3.94,9.39-4.36Zm35.76,23.08s-.06,0-.1,0v-5.99c0-5.81,0-11.63,0-17.44,0-.41-.01-.82,0-1.23.08-1.97,1.15-3.22,2.76-3.22,1.59,0,2.65,1.25,2.66,3.27.02,11.28,0,22.55.01,33.83,0,3.23-.03,6.46.02,9.69.03,1.97,1.37,3.36,3.22,3.51,2.1.17,3.68-1.01,4.01-3.07.12-.75.11-1.52.11-2.28,0-13.45,0-26.9,0-40.35,0-.65-.03-1.3.02-1.94.14-1.6,1.11-2.57,2.55-2.61,1.42-.04,2.5.92,2.71,2.46.08.58.04,1.17.04,1.76,0,9.1-.01,18.21.01,27.31,0,2.93,1.75,4.58,4.32,4.22,1.93-.27,3.11-1.92,3.11-4.44,0-18.32,0-36.65,0-54.97,0-2.54-.69-4.86-2.36-6.81-2.78-3.26-4.19-7.01-3.99-11.29.06-1.26-.37-1.56-1.58-1.55-5.93.06-11.86.03-17.79.03-.7,0-1.41.04-2.08-.24-1.15-.48-1.79-1.34-1.7-2.59.09-1.31.81-2.18,2.14-2.4.63-.1,1.29-.09,1.93-.09,7.75,0,15.5-.03,23.26.02,1.22,0,1.6-.32,1.58-1.57-.07-5.05-.07-10.1,0-15.15.02-1.27-.38-1.53-1.58-1.53-15.62.04-31.24.04-46.86,0-1.17,0-1.64.23-1.62,1.52.07,5.05.07,10.1,0,15.15-.02,1.27.4,1.6,1.6,1.57,3.17-.07,6.34-.05,9.51,0,1.75.03,2.93,1.14,2.92,2.62,0,1.46-1.2,2.59-2.92,2.67-1.17.06-2.35.09-3.52,0-1.17-.09-1.63.2-1.62,1.5.03,4.32-1.69,7.95-4.68,11.01-1.69,1.72-3.4,3.41-5.09,5.12-1.94,1.96-2.96,4.29-2.94,7.09.04,5.76-.03,11.51.03,17.27.04,3.47,1.82,5.95,4.76,7.67,1.18.69,1.66.44,1.62-.98-.06-2.58-.06-5.17,0-7.75.04-1.51.75-2.58,2.38-2.76,1.43-.16,2.39.53,2.8,1.86.19.59.1,1.28.1,1.93,0,15.51,0,31.01,0,46.52,0,.59-.04,1.18.04,1.76.4,2.83,3.35,4.3,5.67,2.85,1.47-.92,1.75-2.35,1.74-3.96-.02-13.98-.01-27.96-.01-41.93,0-2.58.95-3.97,2.69-3.97,1.76,0,2.63,1.31,2.63,3.98,0,15.86,0,31.72,0,47.57,0,.76.03,1.53.18,2.27.35,1.74,1.72,2.84,3.47,2.87,2.39.04,3.8-1.55,3.8-4.44.02-8.1,0-16.21,0-24.31Zm-30.52-16.49c-3.77-2.06-7.67-1.56-10.61,1.31-4.15,4.07-8.23,8.21-12.32,12.34-1.35,1.36-2.18,3.01-2.49,4.92-.48,3.04-.2,6.09-.22,9.14-.03,4.37-1.47,8.16-4.54,11.24-.88.89-.66,1.3.09,2.04,8.36,8.33,16.7,16.67,25.01,25.06.79.8,1.22.88,1.99.01,3.01-3.35,6.86-4.97,11.3-5.34,2.06-.17,3.86-.99,5.33-2.41,2.95-2.86,5.82-5.79,8.83-8.79-2.04-1.39-3.6-3.11-4.25-5.46-.21-.76-.54-.43-1-.31-6.72,1.87-12.12-2.26-12.13-9.27-.02-9.98,0-19.96,0-29.94,0-.62,0-1.24,0-2.29-2.73,2.76-5.14,5.21-7.57,7.64-1.45,1.45-3.01,1.64-4.16.55-1.28-1.21-1.15-2.71.42-4.27,2.04-2.02,4.11-4.01,6.32-6.17Zm105.37,39.52c-.33.31-.59.54-.84.79-11.2,11.21-22.39,22.43-33.6,33.62-.67.67-.81,1.04-.06,1.78,3.73,3.65,7.42,7.36,11.08,11.08.66.68,1.05.81,1.79.06,11.21-11.28,22.45-22.53,33.7-33.77.57-.57.68-.89.05-1.52-3.8-3.75-7.56-7.54-11.34-11.32-.24-.24-.5-.45-.78-.71Z"/>
      <path class="cls-8" d="m51.02,173.62c-1.57,0-2.8-1.18-2.83-2.73-.03-1.56,1.36-2.95,2.9-2.9,1.48.05,2.76,1.39,2.74,2.88-.02,1.54-1.25,2.74-2.81,2.74Z"/>
      <path class="cls-10" d="m55.05,50.57c-1.44-.02-2.68-1.33-2.63-2.75.05-1.49,1.25-2.59,2.79-2.54,1.44.04,2.5,1.15,2.5,2.6,0,1.49-1.21,2.71-2.66,2.69Z"/>
      <path class="cls-9" d="m154.49,67.12c-1.44.03-2.67-1.19-2.69-2.67-.02-1.43,1.05-2.57,2.48-2.62,1.51-.06,2.74,1.04,2.81,2.52.06,1.44-1.17,2.75-2.6,2.77Z"/>
      <path class="cls-2" d="m33.28,81.78c0,1.47-1.21,2.65-2.7,2.64-1.44-.01-2.53-1.09-2.57-2.54-.04-1.52,1.08-2.72,2.56-2.75,1.46-.03,2.71,1.19,2.7,2.65Z"/>
      <path class="cls-9" d="m159.99,71.38c1.46.03,2.66,1.29,2.61,2.75-.05,1.48-1.3,2.62-2.79,2.54-1.4-.07-2.49-1.23-2.49-2.66,0-1.5,1.18-2.66,2.67-2.63Z"/>
      <path class="cls-2" d="m34.69,69.31c1.45-.02,2.64,1.21,2.63,2.7-.01,1.48-1.03,2.54-2.5,2.6-1.49.06-2.75-1.09-2.79-2.54-.03-1.39,1.27-2.74,2.66-2.75Z"/>
      <path class="cls-7" d="m93.93,170.83c1.47.04,2.59,1.26,2.55,2.77-.04,1.51-1.21,2.57-2.76,2.49-1.41-.07-2.54-1.23-2.53-2.61.02-1.43,1.31-2.69,2.73-2.64Z"/>
      <path class="cls-2" d="m139.25,45.74c1.41,0,2.69,1.3,2.68,2.71-.01,1.46-1.24,2.61-2.75,2.58-1.43-.03-2.52-1.13-2.54-2.57-.02-1.51,1.14-2.72,2.61-2.72Z"/>
      <path class="cls-8" d="m107.05,173.1c.03,1.49-1.13,2.65-2.65,2.65-1.45,0-2.58-1.06-2.64-2.48-.06-1.47,1.09-2.73,2.55-2.8,1.42-.06,2.71,1.17,2.74,2.62Z"/>
      <path class="cls-1" d="m40.19,65.65c-1.43-.03-2.62-1.32-2.57-2.78.05-1.47,1.28-2.58,2.79-2.51,1.42.06,2.51,1.22,2.49,2.63-.02,1.44-1.29,2.68-2.72,2.66Z"/>
      <path class="cls-4" d="m168.72,95.23c-.02,1.49-1.21,2.62-2.74,2.59-1.5-.03-2.61-1.23-2.55-2.75.06-1.43,1.2-2.53,2.61-2.54,1.46,0,2.69,1.24,2.67,2.7Z"/>
      <path class="cls-6" d="m169.14,106.18c.02,1.55-1.08,2.7-2.58,2.7-1.46,0-2.71-1.24-2.69-2.67.02-1.34,1.23-2.58,2.57-2.64,1.45-.06,2.68,1.12,2.7,2.61Z"/>
      <path class="cls-1" d="m49.72,54.84c0,1.47-1.23,2.71-2.65,2.7-1.4-.01-2.69-1.35-2.64-2.74.05-1.39,1.2-2.52,2.61-2.55,1.54-.04,2.69,1.07,2.68,2.6Z"/>
      <path class="cls-2" d="m127.39,167.83c-.04,1.44-1.33,2.64-2.78,2.59-1.47-.05-2.58-1.3-2.51-2.81.07-1.42,1.21-2.49,2.64-2.48,1.48.01,2.69,1.24,2.65,2.69Z"/>
      <path class="cls-3" d="m64.11,39.6c1.52.02,2.65,1.2,2.59,2.69-.06,1.38-1.25,2.56-2.61,2.57-1.41.02-2.68-1.25-2.68-2.68,0-1.48,1.17-2.6,2.7-2.58Z"/>
      <path class="cls-6" d="m27.99,94.69c-1.48-.01-2.68-1.26-2.62-2.71.06-1.35,1.29-2.57,2.63-2.6,1.44-.03,2.64,1.19,2.64,2.69,0,1.56-1.09,2.63-2.65,2.62Z"/>
      <path class="cls-8" d="m163.82,81.67c1.39-.01,2.7,1.3,2.7,2.71,0,1.44-1.25,2.63-2.74,2.61-1.46-.03-2.51-1.08-2.54-2.56-.03-1.51,1.13-2.74,2.58-2.75Z"/>
      <path class="cls-1" d="m150.09,55.79c.02,1.56-1.07,2.67-2.61,2.66-1.47-.01-2.72-1.25-2.68-2.67.03-1.34,1.27-2.58,2.6-2.62,1.44-.04,2.68,1.17,2.7,2.64Z"/>
      <path class="cls-6" d="m29.74,102.66c-.02,1.48-1.22,2.63-2.73,2.59-1.48-.03-2.52-1.08-2.53-2.56-.02-1.51,1.14-2.74,2.59-2.75,1.42,0,2.69,1.28,2.67,2.71Z"/>
      <path class="cls-1" d="m27.76,115.84c-1.49.03-2.71-1.13-2.73-2.6-.02-1.4,1.29-2.72,2.69-2.71,1.38,0,2.53,1.16,2.58,2.58.05,1.57-.99,2.69-2.53,2.73Z"/>
      <path class="cls-8" d="m29.85,120.99c1.49-.03,2.73,1.14,2.74,2.6.02,1.4-1.3,2.72-2.69,2.71-1.37-.01-2.53-1.17-2.59-2.58-.06-1.56.99-2.7,2.53-2.73Z"/>
      <path class="cls-2" d="m75.91,169.42c.04,1.4-1.24,2.72-2.65,2.73-1.42.01-2.63-1.23-2.63-2.71,0-1.46,1.05-2.54,2.51-2.57,1.51-.04,2.73,1.08,2.77,2.56Z"/>
      <path class="cls-2" d="m117.37,171.23c0,1.5-1.2,2.7-2.66,2.68-1.41-.02-2.69-1.36-2.63-2.76.05-1.4,1.2-2.49,2.63-2.52,1.55-.03,2.67,1.07,2.66,2.6Z"/>
      <path class="cls-8" d="m132.66,42.48c-.05,1.46-1.3,2.58-2.8,2.52-1.53-.07-2.59-1.25-2.49-2.78.09-1.4,1.3-2.54,2.65-2.5,1.39.03,2.68,1.39,2.63,2.76Z"/>
      <path class="cls-9" d="m86.02,172.22c.02,1.49-1.17,2.74-2.61,2.73-1.41,0-2.71-1.31-2.69-2.71.02-1.39,1.17-2.54,2.58-2.57,1.58-.04,2.71,1.02,2.73,2.55Z"/>
      <path class="cls-9" d="m83.74,26.12c.05,1.44-1.26,2.85-2.72,2.92-1.49.08-2.82-1.15-2.89-2.68-.08-1.63.98-2.85,2.56-2.93,1.65-.09,3,1.09,3.05,2.69Z"/>
      <path class="cls-7" d="m175.85,146.72c0,1.54-1.22,2.8-2.74,2.82-1.53.02-2.9-1.4-2.85-2.95.06-1.55,1.28-2.69,2.87-2.67,1.57.02,2.72,1.19,2.71,2.79Z"/>
    </g>
  </g>
</svg>