<?xml version="1.0" encoding="UTF-8"?>
<svg id="Capa_1" data-name="Capa 1" xmlns="http://www.w3.org/2000/svg" viewBox="0 0 200 200">
  <defs>
    <style>
      .cls-1 {
        fill: #030303;
      }

      .cls-1, .cls-2 {
        stroke-width: 0px;
      }

      .cls-2 {
        fill: #010101;
      }
    </style>
  </defs>
  <g id="PqYrKd.tif">
    <g>
      <path class="cls-2" d="m44.84,126.31c-.06-2.3.59-4.4,1.94-6.24.53-.73.52-1.23-.12-1.8-.7-.61-1.34-1.28-2.08-1.81-.88-.62-1.8-1.44-2.79-1.59-1.31-.19-1.28,1.42-1.89,2.19-2.3,2.95-6.5,4.16-9.93,2.45-3.34-1.66-6.63-3.45-9.8-5.4-3.8-2.35-4.78-6.95-2.5-10.99,5.17-9.19,10.37-18.37,15.56-27.55,3.03-5.37,6.08-10.73,9.1-16.11,2.68-4.76,7.21-6.07,12.02-3.45,2.7,1.48,5.4,2.97,8.08,4.5,3.54,2.03,5.05,5.68,3.85,9.57-.32,1.03-.14,1.35.84,1.51.63.11,1.25.35,1.86.57,2.86,1.01,5.42,1.64,8.3-.69,2.47-2,5.97-2.13,9.15-2.45,5.29-.53,10.61-.81,15.9-1.42,4.51-.52,8.55.96,12.65,2.38,2.85.99,5.7,2.01,8.53,3.08,1.27.48,2.49.57,3.8.15,1.9-.61,3.83-1.14,5.77-1.62.84-.21.99-.46.73-1.32-1.27-4.3.22-7.76,4.18-9.98,2.55-1.43,5.1-2.85,7.65-4.26,4.8-2.64,9.36-1.34,12.03,3.39,1.48,2.64,2.99,5.27,4.46,7.92,1.16,2.09.77,3.95-.99,4.93-1.73.96-3.5.32-4.71-1.76-1.49-2.57-2.95-5.17-4.43-7.75-1.03-1.78-1.48-1.93-3.23-.97-2.42,1.32-4.83,2.66-7.24,4.01-1.93,1.08-2.07,1.54-.98,3.46,6.26,11.06,12.53,22.12,18.79,33.18,1.87,3.29,3.71,6.6,5.59,9.89.9,1.58,1.58,1.76,3.16.9,2.51-1.38,5.02-2.77,7.52-4.17,1.62-.9,1.76-1.44.82-3.12-1.64-2.92-3.31-5.83-4.94-8.76-1.22-2.19-.85-4.08.93-5.08,1.78-.99,3.57-.28,4.81,1.92,1.68,2.97,3.36,5.93,5.03,8.91,2.57,4.58,1.28,9.18-3.32,11.77-2.64,1.49-5.28,2.97-7.95,4.41-4.45,2.41-9.05,1.15-11.56-3.26-.64-1.13-1.2-1.27-2.17-.56-.66.48-1.39.85-2.03,1.33q-2.58,1.94-1.16,4.78c3.09,6.16-.24,13.65-6.88,15.42-1.1.29-1.61.6-1.65,1.95-.15,5.02-3.42,8.94-8.29,10.16-.95.24-1.37.56-1.37,1.68,0,6.87-6.43,11.94-13.2,10.46-.93-.2-1.33-.08-1.69.95-2.55,7.44-11.11,9.92-17.34,5.09-1.24-.96-2.5-2.67-3.73-2.66-1.23.01-2.43,1.76-3.65,2.74-1.69,1.36-3.34,2.78-5.11,4.04-3.51,2.51-7.34,2.91-11.22,1.03-3.93-1.91-6.06-5.19-6.19-9.58-.04-1.2-.44-1.5-1.49-1.74-4.66-1.07-8.14-5.48-8.1-10.3,0-1.09-.34-1.46-1.32-1.71-4.96-1.25-8.25-5.23-8.35-10.28-.02-1.19-.4-1.52-1.43-1.79-5.02-1.32-8.2-5.46-8.2-10.55Zm38-12.97c8.49,0,13.7,8.71,9.76,16.19-.4.75-.64,1.15.31,1.75,5.24,3.3,6.77,9.19,3.84,14.73-.44.84-.33,1.14.44,1.59,2.71,1.6,4.72,3.99,4.95,7.07.21,2.72,1.38,4.36,3.5,5.68.69.43,1.26,1.02,1.91,1.52,2.17,1.65,4.83,1.47,6.41-.41,1.66-1.98,1.35-4.58-.84-6.46-1.36-1.17-2.78-2.26-4.18-3.37-.74-.59-1.33-1.27-1.45-2.25-.18-1.43.26-2.6,1.52-3.34,1.37-.8,2.72-.56,3.93.41,2.97,2.37,5.92,4.77,8.9,7.12,2.24,1.77,4.94,1.59,6.53-.39,1.67-2.09,1.27-4.7-1.04-6.56-2.88-2.31-5.78-4.59-8.65-6.92-1.88-1.52-2.19-3.38-.91-4.94,1.27-1.55,3.14-1.62,5.03-.13,2.94,2.32,5.87,4.66,8.79,7,1.32,1.06,2.79,1.42,4.41.88,3.38-1.15,4.07-5.28,1.21-7.7-2.73-2.31-5.6-4.47-8.37-6.75-1.51-1.24-1.84-2.69-1.08-4.17,1-1.96,3.31-2.35,5.25-.83,2.78,2.18,5.5,4.43,8.28,6.59,2.62,2.03,6.15,1.02,7.14-2,.6-1.82.04-3.58-1.76-5.02-4.95-3.98-9.91-7.95-14.91-11.87-6.75-5.28-13.56-10.5-20.75-15.17-4.11-2.67-8.61-3.66-13.5-2.86-3.84.63-7.67,1.27-11.64.77-6.8-.85-12.37-5.8-13.59-12.54-.15-.83-.45-1.2-1.24-1.41-2.5-.67-5.02-1.33-7.47-2.15-.92-.31-1.22,0-1.61.7-5.6,9.95-11.21,19.89-16.85,29.82-.41.72-.45,1.07.38,1.47,2.43,1.16,4.52,2.81,6.25,4.86.58.69.92.54,1.51.05,2.39-1.96,4.82-3.89,7.25-5.8,6.77-5.31,14.77-3.18,17.92,4.81.28.71.53.82,1.16.6,1.08-.38,2.19-.63,3.24-.54Zm20.73-39.25c-5.52.48-11.04.92-16.55,1.47-2.25.22-4.52.54-6.61,1.52-1.75.81-2.12,1.52-1.57,3.35.85,2.81,2.59,4.82,5.39,5.86,3.01,1.12,6.07,1.02,9.14.44,4.96-.94,9.9-1.29,14.8.29,3.91,1.26,7.29,3.5,10.61,5.85,9.57,6.77,18.78,14.01,27.9,21.37.69.56,1.03.61,1.63-.11,1.7-2,3.77-3.58,6.13-4.75.71-.35.93-.62.46-1.44-5.67-9.96-11.3-19.94-16.92-29.94-.39-.69-.73-.84-1.51-.59-2.47.77-4.99,1.41-7.48,2.14-2.64.78-5.19.63-7.78-.36-3.93-1.5-7.93-2.82-11.9-4.21-1.86-.65-3.75-1.09-5.74-.9Zm-70.21,39.61c.93.11,1.31-.59,1.69-1.25,1.79-3.15,3.55-6.31,5.33-9.47,6.34-11.2,12.68-22.39,19.02-33.59,1.18-2.09,1.06-2.49-1.08-3.68-2.41-1.34-4.84-2.64-7.24-4-1.29-.74-2.19-.52-2.94.8-8.21,14.55-16.44,29.08-24.69,43.61-.76,1.34-.44,2.21.86,2.91,2.57,1.39,5.11,2.82,7.66,4.23.42.23.84.51,1.39.43Zm32.11,29.01c1.22.09,2.18-.49,3.09-1.21,5.63-4.49,11.28-8.97,16.9-13.48,2.17-1.74,2.57-4.53,1.04-6.46-1.62-2.04-4.2-2.27-6.5-.51-2.32,1.78-4.59,3.63-6.88,5.46-3.47,2.77-6.96,5.52-10.4,8.34-1.65,1.36-2.13,3.31-1.45,5.11.65,1.72,2.26,2.78,4.19,2.77Zm9.6,12.06c.91.08,1.76-.21,2.44-.75,4.3-3.4,8.61-6.78,12.81-10.29,1.74-1.45,1.79-4.19.41-5.89-1.43-1.76-4-2.3-5.84-.9-4.35,3.32-8.62,6.76-12.86,10.24-1.48,1.21-1.78,3.22-1.05,4.91.72,1.67,2.27,2.69,4.09,2.68Zm-23.7-28.48c.03,1.71.75,3.06,2.25,3.86,1.6.86,3.3.85,4.74-.28,4.19-3.27,8.36-6.57,12.45-9.96,1.91-1.58,2.1-4.3.65-6.12-1.51-1.9-4.21-2.25-6.25-.66-4.11,3.2-8.15,6.48-12.2,9.76-1.06.86-1.66,1.98-1.64,3.4Zm44.55,30.47c-.07-1.53-.77-2.85-2.29-3.67-1.58-.86-3.16-.82-4.58.25-2.46,1.86-4.89,3.76-7.23,5.76-1.88,1.61-2.04,4.33-.56,6.12,1.55,1.87,4.07,2.22,6.11.69,2.38-1.79,4.67-3.69,6.98-5.57,1.07-.87,1.57-2.04,1.58-3.57Z"/>
      <path class="cls-2" d="m96.74,37.98c0-2.61-.01-5.22,0-7.83.01-2.17,1.38-3.63,3.33-3.59,1.87.04,3.18,1.48,3.19,3.57.01,5.33.01,10.66,0,15.99,0,2.15-1.41,3.65-3.33,3.6-1.85-.04-3.17-1.52-3.19-3.59-.02-2.72,0-5.44,0-8.16Z"/>
      <path class="cls-2" d="m81.45,53.13c-.02,1.77-.83,2.77-2.23,3.29-1.4.52-2.84.01-3.78-1.43-1.78-2.71-3.48-5.48-5.21-8.22-1.1-1.74-2.22-3.46-3.28-5.22-1.13-1.86-.73-3.83.91-4.82,1.57-.96,3.47-.45,4.61,1.34,2.82,4.42,5.6,8.87,8.39,13.31.38.6.69,1.23.59,1.76Z"/>
      <path class="cls-2" d="m118.56,53.17c-.09-.72.31-1.37.72-2.01,2.7-4.3,5.4-8.61,8.12-12.9,1.24-1.95,3.2-2.54,4.82-1.49,1.64,1.06,1.93,3.03.7,5-2.72,4.35-5.45,8.7-8.21,13.03-.99,1.55-2.41,2.11-3.87,1.65-1.41-.45-2.29-1.69-2.28-3.29Z"/>
      <path class="cls-1" d="m163.54,82.21c0-1.82,1.34-3.18,3.15-3.21,1.87-.03,3.34,1.39,3.33,3.23-.01,1.82-1.54,3.31-3.35,3.26-1.77-.05-3.13-1.47-3.13-3.27Z"/>
    </g>
  </g>
</svg>