<?xml version="1.0" encoding="UTF-8"?>
<svg id="Capa_1" data-name="Capa 1" xmlns="http://www.w3.org/2000/svg" viewBox="0 0 200 200">
  <defs>
    <style>
      .cls-1 {
        fill: #010101;
        stroke-width: 0px;
      }
    </style>
  </defs>
  <g id="VLKt2y.tif">
    <g>
      <path class="cls-1" d="m68.12,95.18c-4.57,6.23-8.83,12.06-13.13,17.87-1.83,2.47-4.6,3.07-7.09,1.65-.87-.5-1.46-1.26-2.03-2.04-4.08-5.56-8.17-11.11-12.22-16.7-.59-.82-1.2-1.16-2.24-1.15-4.51.06-9.03.03-13.54.02-3.53,0-5.62-2.1-5.63-5.63,0-23.77,0-47.53,0-71.3,0-3.63,2.08-5.68,5.75-5.68,36.05,0,72.1,0,108.15,0,3.63,0,5.73,2.09,5.73,5.7,0,21.6.02,43.19-.03,64.79,0,1.42.22,1.89,1.8,1.88,16.05-.07,32.11-.05,48.16-.04,3.99,0,5.95,1.98,5.95,6,0,23.54,0,47.08,0,70.61,0,4.02-1.96,6-5.95,6-11.54,0-23.08.02-34.62-.03-1.17,0-1.83.38-2.5,1.31-4.03,5.6-8.12,11.15-12.21,16.7-2.6,3.53-6.49,3.51-9.09-.04-4.11-5.61-8.24-11.2-12.31-16.84-.61-.84-1.23-1.13-2.24-1.13-11.54.03-23.08.02-34.62.02-4.12,0-6.1-1.96-6.1-6.03,0-21.2,0-42.39,0-63.59v-2.37Zm59.83,78.7c3.6-4.91,7.08-9.62,10.52-14.38,1.31-1.81,2.96-2.65,5.22-2.64,10.74.05,21.48,0,32.22.06,1.28,0,1.58-.29,1.58-1.58-.05-19.65-.05-39.3,0-58.95,0-1.27-.29-1.58-1.57-1.58-31.99.04-63.98.04-95.97,0-1.27,0-1.58.29-1.58,1.58.05,19.65.05,39.3,0,58.95,0,1.29.31,1.58,1.58,1.58,10.63-.06,21.25.01,31.88-.06,2.53-.02,4.32.86,5.78,2.91,3.34,4.69,6.79,9.29,10.34,14.12ZM72.07,22.51c-15.99,0-31.98.02-47.97-.03-1.24,0-1.6.23-1.6,1.55.05,19.65.05,39.29,0,58.94,0,1.44.48,1.64,1.72,1.61,3.48-.07,6.97.05,10.45-.05,2.34-.07,4.02.85,5.36,2.71,3.17,4.39,6.41,8.72,9.57,13.12.72,1,1.06,1.32,1.95.06,3.15-4.47,6.48-8.82,9.67-13.26,1.31-1.83,2.97-2.63,5.22-2.62,17.82.04,35.64,0,53.46.06,1.45,0,1.74-.38,1.74-1.77-.05-19.53-.05-39.06,0-58.6,0-1.43-.35-1.75-1.76-1.75-15.93.06-31.87.04-47.8.04Z"/>
      <path class="cls-1" d="m122.03,143.53c-1.55.03-2.76-.54-3.77-1.53-4.29-4.27-8.58-8.53-12.83-12.84-2.18-2.22-2.19-5.24-.14-7.33,2.1-2.14,5.16-2.14,7.46.09,2.7,2.62,5.39,5.27,7.98,8,.94.99,1.44,1.11,2.48.05,6.52-6.64,13.12-13.19,19.71-19.76,2.21-2.2,4.87-2.52,7.08-.89,2.49,1.83,2.91,5.39.67,7.65-8.35,8.44-16.76,16.81-25.17,25.19-.96.96-2.18,1.43-3.47,1.37Z"/>
      <path class="cls-1" d="m64.81,53.55c-3.13-3.11-6.17-6.12-9.2-9.14-2.42-2.43-2.61-5.58-.48-7.73,2.14-2.16,5.3-2.01,7.73.4,2.76,2.73,5.53,5.45,8.22,8.25.8.83,1.21.74,1.95-.03,2.7-2.79,5.47-5.52,8.22-8.25,2.41-2.39,5.61-2.52,7.73-.34,2.08,2.13,1.92,5.25-.41,7.62-2.73,2.76-5.44,5.54-8.26,8.22-.91.87-.78,1.28.05,2.08,2.76,2.65,5.44,5.38,8.13,8.1,2.41,2.44,2.58,5.59.44,7.73-2.14,2.14-5.32,1.98-7.73-.44-3.03-3.02-6.04-6.07-9.16-9.2-3.18,3.2-6.28,6.38-9.46,9.48-2.9,2.83-7.32,1.91-8.61-1.78-.75-2.14-.18-4.03,1.42-5.61,3.12-3.09,6.23-6.19,9.41-9.35Z"/>
    </g>
  </g>
</svg>