<?xml version="1.0" encoding="UTF-8"?>
<svg id="Capa_1" data-name="Capa 1" xmlns="http://www.w3.org/2000/svg" viewBox="0 0 200 200">
  <defs>
    <style>
      .cls-1 {
        fill: #010101;
        stroke-width: 0px;
      }
    </style>
  </defs>
  <g>
    <path class="cls-1" d="m99.27,55.06c7.04.13,13.81,1.38,19.9,5.17,7.22,4.5,10.58,11.1,10.46,19.54-.09,6.5-3.28,11.44-7.85,15.69-3.23,3.01-6.89,5.47-10.45,8.05-2.68,1.94-4.5,4.37-5.55,7.48-.55,1.64-1.23,3.26-2.61,4.43-2.27,1.93-6.55,2.27-9.25.77-2.64-1.47-4.19-4.85-3.95-7.94.42-5.45,3.57-9.21,7.5-12.51,2.74-2.3,5.62-4.45,8.34-6.78,2.84-2.45,5.21-5.24,5.33-9.28.16-5.66-2.86-9.47-8.44-10.43-4.5-.78-8.81-.43-12.26,3.06-1.53,1.55-2.35,3.56-3.34,5.46-.54,1.04-.99,2.13-1.6,3.13-2.45,4.05-7.74,5.31-11.78,2.81-3.32-2.06-3.76-5.08-3.07-8.77,1.43-7.65,6.49-12.54,13.03-16.09,4.84-2.62,10.06-3.89,15.59-3.8Z"/>
    <path class="cls-1" d="m108.13,135.04c-.02,5.48-4.48,9.92-9.95,9.9-5.48-.02-9.89-4.47-9.88-9.97.01-5.45,4.56-10,9.94-9.95,5.44.05,9.91,4.57,9.89,10.01Z"/>
  </g>
  <path class="cls-1" d="m100,20.09c20.81,0,40.37,8.18,55.09,23.04,14.75,14.88,22.87,34.68,22.87,55.74s-8.12,40.86-22.87,55.74c-14.72,14.86-34.29,23.04-55.09,23.04-7.76,0-15.89-2.06-23.75-4.05-1.96-.5-3.99-1.01-5.98-1.48h0c-1.39-.33-2.83-.37-4.24-.11h0s-30.85,5.62-30.85,5.62c-.82.15-1.46-.67-1.13-1.43l7.27-16.48h0c1.57-3.55,1.01-7.68-1.45-10.69h0c-11.5-14.06-17.83-31.87-17.83-50.15,0-21.06,8.12-40.86,22.87-55.74,14.72-14.86,34.29-23.04,55.09-23.04m0-10.31C51.25,9.78,11.73,49.66,11.73,98.87c0,20.4,6.79,39.2,18.22,54.22,1.18,1.56,1.42,3.64.63,5.43l-11.35,25.73c-1.27,2.88.9,5.98,3.87,5.98.26,0,.52-.02.79-.07l41.28-7.52c1.79-.33,3.63-.28,5.4.16,9.35,2.33,19.25,5.16,29.43,5.16,48.75,0,88.27-39.89,88.27-89.09S148.75,9.78,100,9.78h0Z"/>
</svg>