<?xml version="1.0" encoding="UTF-8"?>
<svg id="Capa_1" data-name="Capa 1" xmlns="http://www.w3.org/2000/svg" viewBox="0 0 200 200">
  <defs>
    <style>
      .cls-1 {
        fill: #010101;
        stroke-width: 0px;
      }
    </style>
  </defs>
  <g id="ynLcJx.tif">
    <g>
      <path class="cls-1" d="m100,10.63c18.78,0,37.56-.14,56.34.05,13.71.14,23.71,6.64,29.92,18.83,2.21,4.34,3.12,9.07,3.12,13.93.02,37.69.06,75.37-.01,113.06-.03,16.38-11.48,29.75-27.63,32.49-1.99.34-4.04.4-6.07.4-37.12.02-74.23.03-111.35.01-16.96,0-30.05-10.79-33.26-27.42-.33-1.73-.43-3.53-.44-5.3-.02-37.75-.06-75.5,0-113.25.03-15.41,10.33-28.28,25.31-31.93,2.78-.68,5.62-.88,8.48-.88,18.53,0,37.05,0,55.58,0Zm.01,162.48c18.59,0,37.17,0,55.76,0,10.25,0,17.32-7.05,17.32-17.25,0-37.17,0-74.34,0-111.52,0-10.39-7-17.41-17.34-17.41-37.17,0-74.35,0-111.52,0-10.25,0-17.32,7.04-17.32,17.24,0,37.24,0,74.47,0,111.71,0,10.11,7.08,17.23,17.15,17.23,18.65,0,37.3,0,55.95,0Z"/>
      <path class="cls-1" d="m144.33,71.86c0,2.29-.8,4.24-2.39,5.84-16.22,16.24-32.45,32.49-48.71,48.69-3.42,3.4-8.3,3.32-11.68-.13-7.85-8.02-15.66-16.08-23.45-24.16-3.28-3.41-3.21-8.35.07-11.56,3.28-3.22,8.19-3.17,11.54.23,5.56,5.65,11.09,11.33,16.57,17.06.97,1.02,1.46,1.17,2.56.07,13.77-13.86,27.58-27.67,41.42-41.46,4.58-4.57,11.87-2.84,13.69,3.18.22.72.27,1.48.39,2.23Z"/>
    </g>
  </g>
</svg>